Coordinates
version=1
nRows=12
nColumns=24
inDegrees=yes

Units are S.I. units (second, meters, Newtons, ...)
Angles are in degrees.

endheader
time	pelvis_tilt	pelvis_list	pelvis_rotation	pelvis_tx	pelvis_ty	pelvis_tz	hip_flexion_r	hip_adduction_r	hip_rotation_r	knee_angle_r	ankle_angle_r	subtalar_angle_r	mtp_angle_r	hip_flexion_l	hip_adduction_l	hip_rotation_l	knee_angle_l	ankle_angle_l	subtalar_angle_l	mtp_angle_l	lumbar_extension	lumbar_bending	lumbar_rotation
      1.16216667	     -2.66422621	     -3.97118313	     -2.50147671	     -0.17522547	      1.00254025	      0.33467250	    -12.14894672	      8.26283526	      3.31152064	     -8.62921719	     15.47419096	     -3.24412066	      4.19324127	     23.97569392	     -4.86008889	     -2.24443941	      6.88382452	      3.32792662	     -6.67917275	     -3.27364761	     -1.10706858	      2.03757508	      7.84179068
      1.16633333	     -2.67864418	     -3.82605247	     -2.60658092	     -0.16947591	      1.00166393	      0.33432684	    -12.32132016	      8.03763539	      3.27517487	     -8.95895778	     15.67727015	     -3.04307453	      4.19801457	     24.10028606	     -4.68805683	     -2.18001605	      6.39790309	      3.48364429	     -6.67685082	     -3.22005299	     -1.06346419	      1.87170803	      7.94611688
      1.17050000	     -2.66693958	     -3.68389486	     -2.70188429	     -0.16370508	      1.00084466	      0.33399136	    -12.51607116	      7.82470460	      3.28010967	     -9.29778968	     15.80115035	     -2.99697430	      4.20415559	     24.20811432	     -4.51725075	     -2.10175577	      5.83269360	      3.59306116	     -6.74288245	     -3.18224298	     -1.02327398	      1.68003980	      7.99298984
      1.17466667	     -2.68345299	     -3.50239573	     -2.79197417	     -0.15789271	      1.00000775	      0.33359295	    -12.64219796	      7.56068501	      3.18156029	     -9.71721343	     16.04206117	     -2.69567651	      4.22715371	     24.37057946	     -4.30072787	     -2.10375096	      5.16443865	      3.68943679	     -6.68507774	     -3.05442167	     -0.97493815	      1.48441099	      8.13669510
      1.17883333	     -2.65812895	     -3.32741326	     -2.86430328	     -0.15203761	      0.99925390	      0.33322298	    -12.83816592	      7.32249526	      3.20648696	    -10.08151962	     16.11530018	     -2.73170609	      4.23457253	     24.48389719	     -4.08707558	     -2.02942327	      4.46125661	      3.71257043	     -6.78695180	     -3.01472655	     -0.95514446	      1.26035098	      8.16095282
      1.18300000	     -2.66999414	     -3.13009721	     -2.93824665	     -0.14614169	      0.99846691	      0.33279731	    -12.94525510	      7.04914718	      3.10934946	    -10.55291296	     16.32558868	     -2.47025253	      4.27995526	     24.66192488	     -3.84957949	     -2.05915009	      3.66691835	      3.71268073	     -6.74290109	     -2.79606277	     -0.87291477	      1.02339552	      8.29752032
      1.18716667	     -2.62675511	     -2.92675230	     -2.98633420	     -0.14021235	      0.99778029	      0.33237944	    -13.13878161	      6.78966127	      3.13775393	    -10.95993344	     16.35639127	     -2.55396911	      4.28977126	     24.77074853	     -3.59703752	     -1.99635074	      2.86509371	      3.64865838	     -6.85789582	     -2.74900983	     -0.87500852	      0.78009673	      8.31272213
      1.19133333	     -2.55577197	     -2.68716730	     -3.02804588	     -0.13419731	      0.99716424	      0.33190397	    -13.32496705	      6.47378836	      2.99664814	    -11.44723952	     16.48772566	     -2.30473836	      4.62267648	     24.86410634	     -3.30304625	     -2.08502171	      2.00523970	      3.53321608	     -6.80067329	     -1.26986124	     -0.87227611	      0.46933303	      8.36702655
      1.19550000	     -2.55488880	     -2.47980223	     -3.07173573	     -0.12821274	      0.99646813	      0.33148129	    -13.43769763	      6.22407347	      3.06375788	    -11.93049165	     16.50225900	     -2.46716587	      4.63908243	     25.02968284	     -3.04763472	     -2.02483775	      1.13392836	      3.33468404	     -6.96711919	     -1.21472776	     -0.78987953	      0.19363388	      8.40179946
      1.19966667	     -2.52338063	     -2.25416329	     -3.10151568	     -0.12218694	      0.99585354	      0.33100126	    -13.56787223	      5.95153956	      3.08274699	    -12.44036520	     16.46176884	     -2.58924459	      4.65228099	     25.16227345	     -2.76482781	     -1.98686112	      0.24718791	      3.10437040	     -7.11146046	     -1.17526159	     -0.77294931	     -0.05479426	      8.43135843
      1.20383333	     -2.48989634	     -2.01412794	     -3.12529063	     -0.11611154	      0.99527357	      0.33052695	    -13.68356071	      5.66826201	      3.08520358	    -12.98463956	     16.41507237	     -2.70769749	      4.67362018	     25.29025671	     -2.46722096	     -1.96654298	     -0.64929787	      2.80357434	     -7.27121426	     -1.12204802	     -0.71951483	     -0.36338099	      8.46184202
      1.20800000	     -2.46035339	     -1.76864664	     -3.14148655	     -0.11000634	      0.99472894	      0.33002031	    -13.77573187	      5.38195288	      3.07946881	    -13.56682468	     16.34151074	     -2.82447405	      4.70290927	     25.41817281	     -2.16075115	     -1.94064214	     -1.54444470	      2.44613299	     -7.44452141	     -1.05751558	     -0.65926679	     -0.67251190	      8.48973032
